<?xml version="1.0" standalone="no"?>
<!DOCTYPE svg PUBLIC "-//W3C//DTD SVG 20010904//EN"
 "http://www.w3.org/TR/2001/REC-SVG-20010904/DTD/svg10.dtd">
<svg version="1.0" xmlns="http://www.w3.org/2000/svg"
 width="724.000000pt" height="209.000000pt" viewBox="0 0 724.000000 209.000000"
 preserveAspectRatio="xMidYMid meet">

<g transform="translate(0.000000,209.000000) scale(0.100000,-0.100000)"
fill="#000000" stroke="none">
<path d="M1680 2056 c-121 -28 -193 -55 -295 -112 -174 -97 -326 -259 -415
-439 -49 -100 -106 -278 -95 -295 4 -6 21 -10 40 -10 31 0 35 3 41 38 17 95
93 266 158 356 50 71 161 181 233 232 77 56 205 116 308 146 106 30 362 33
465 5 171 -46 327 -136 451 -260 96 -96 154 -183 207 -307 31 -73 72 -225 72
-266 0 -2 18 -4 40 -4 47 0 47 0 21 107 -61 253 -163 427 -341 581 -81 71
-248 168 -335 196 -186 59 -386 71 -555 32z"/>
<path d="M39 1087 c-31 -16 -37 -61 -12 -89 18 -20 23 -21 688 -15 726 6 2454
23 3320 31 297 3 977 9 1510 13 712 6 910 10 745 15 -124 4 -882 12 -1685 18
-1989 14 -3691 28 -4156 34 -288 3 -392 1 -410 -7z"/>
<path d="M7126 1085 c-36 -37 -23 -95 25 -110 29 -9 73 24 77 58 6 51 -66 88
-102 52z"/>
<path d="M2846 918 c-22 -115 -33 -155 -64 -232 -109 -274 -357 -493 -647
-571 -83 -23 -292 -31 -395 -16 -310 46 -594 268 -722 564 -21 51 -45 117 -52
147 l-12 55 -43 3 c-37 3 -42 1 -37 -15 3 -10 17 -58 31 -107 31 -107 61 -171
124 -268 115 -176 304 -332 482 -397 170 -62 194 -66 384 -66 175 0 183 1 285
33 177 55 293 121 421 240 165 154 254 311 310 548 11 47 17 89 14 94 -3 6
-22 10 -40 10 -28 0 -35 -4 -39 -22z"/>
<path d="M3130 640 c0 -133 1 -140 20 -140 19 0 20 7 20 140 0 133 -1 140 -20
140 -19 0 -20 -7 -20 -140z"/>
<path d="M3313 756 c-27 -23 -28 -28 -28 -116 0 -88 1 -93 28 -116 28 -24 29
-24 263 -24 219 0 235 1 232 18 -3 15 -23 17 -230 20 -191 2 -228 5 -239 18
-16 19 -14 151 3 171 8 10 64 13 239 13 222 0 229 1 229 20 0 19 -7 20 -234
20 -234 0 -235 0 -263 -24z"/>
<path d="M3996 643 c-126 -129 -133 -138 -108 -142 23 -3 43 14 144 118 96
100 121 121 145 121 24 0 51 -22 153 -125 107 -109 160 -147 160 -117 0 5 -59
70 -131 145 l-131 137 -48 0 -49 0 -135 -137z"/>
<path d="M4545 767 c-3 -7 -4 -71 -3 -142 3 -113 5 -130 20 -133 16 -3 18 10
20 120 l3 123 199 3 c217 3 246 -3 246 -52 0 -35 -18 -45 -88 -48 l-63 -3 66
-72 c48 -52 74 -73 91 -73 33 0 30 10 -16 55 -22 21 -40 42 -40 46 0 3 13 9
30 12 62 13 83 99 35 146 l-25 26 -235 3 c-191 2 -236 0 -240 -11z"/>
<path d="M5192 747 c-19 -20 -22 -34 -22 -113 1 -142 4 -144 270 -144 l202 0
29 29 c28 28 29 34 29 116 0 78 -2 88 -25 110 l-24 25 -219 0 c-215 0 -219 0
-240 -23z m454 -31 c9 -12 14 -44 14 -85 0 -102 3 -101 -222 -101 -111 0 -197
4 -209 10 -16 9 -19 22 -19 90 0 113 -3 112 233 108 173 -3 190 -5 203 -22z"/>
<path d="M5830 750 c-30 -30 -27 -83 6 -109 25 -20 39 -21 233 -21 148 0 210
-3 219 -12 18 -18 14 -56 -7 -68 -12 -6 -109 -10 -245 -10 -219 0 -226 -1
-226 -20 0 -19 7 -20 240 -20 l241 0 24 25 c34 33 34 93 2 123 -22 21 -33 22
-236 24 -184 3 -215 5 -224 19 -6 9 -7 24 -4 33 6 14 33 16 237 16 223 0 230
1 230 20 0 19 -7 20 -235 20 -222 0 -236 -1 -255 -20z"/>
</g>
</svg>
